<svg width="46" height="46" viewBox="0 0 46 46" fill="none" xmlns="http://www.w3.org/2000/svg">
<path d="M22.997 45.994C35.6979 45.994 45.994 35.6979 45.994 22.997C45.994 10.2961 35.6979 0 22.997 0C10.2961 0 0 10.2961 0 22.997C0 35.6979 10.2961 45.994 22.997 45.994Z" fill="#2767AB"/>
<path d="M32.4433 10.5942H23.0029H22.9969H13.5565C12.0302 10.5942 10.7983 11.8982 10.7983 13.5027V27.9186C10.7983 27.9366 10.8043 27.9486 10.8043 27.9667C10.8164 29.4509 11.207 31.5481 13.0458 32.8341C16.1164 34.9733 20.0825 37.7736 22.9789 37.8036C22.9849 37.8036 22.9969 37.8036 23.0029 37.8036C23.0089 37.8036 23.0209 37.8036 23.0269 37.8036C25.9294 37.7736 29.8954 34.9733 32.9601 32.8341C34.7989 31.5541 35.1895 29.4509 35.2015 27.9667C35.2015 27.9486 35.2075 27.9366 35.2075 27.9186V13.5087C35.2075 11.8982 33.9696 10.5942 32.4433 10.5942ZM33.2064 27.3658C33.2064 27.3778 33.2064 27.3898 33.2004 27.4078C33.1884 28.6697 32.8639 30.4545 31.3256 31.5481C28.7597 33.3689 25.4426 35.7485 23.0149 35.7786C23.0089 35.7786 23.0029 35.7786 22.9969 35.7786C22.9909 35.7786 22.9849 35.7786 22.9789 35.7786C20.5512 35.7545 17.2341 33.3689 14.6682 31.5481C13.1299 30.4545 12.8054 28.6758 12.7934 27.4078C12.7934 27.3958 12.7874 27.3838 12.7874 27.3658V15.1071C12.7874 13.743 13.8209 12.6313 15.0949 12.6313H22.9909H30.8869C32.1608 12.6313 33.1944 13.737 33.1944 15.1071V27.3658H33.2064Z" fill="white"/>
<path d="M27.564 21.711C29.5453 21.711 31.1515 20.1317 31.1515 18.1836C31.1515 16.2355 29.5453 14.6562 27.564 14.6562C25.5827 14.6562 23.9766 16.2355 23.9766 18.1836C23.9766 20.1317 25.5827 21.711 27.564 21.711Z" fill="white"/>
<path d="M15.8819 14.6504H20.8875C21.4944 14.6504 21.9872 15.1492 21.9872 15.7681V32.7559L15.7797 28.8921C15.1608 28.5075 14.7822 27.8224 14.7822 27.0833V15.7741C14.7822 15.1552 15.275 14.6504 15.8819 14.6504Z" fill="white"/>
</svg>
